<svg width="18" height="18" viewBox="0 0 18 18" fill="none" xmlns="http://www.w3.org/2000/svg">
<path fill-rule="evenodd" clip-rule="evenodd" d="M9 0C4.02762 0 0 4.02762 0 9C0 12.9779 2.58011 16.348 6.15469 17.5414C6.60221 17.6244 6.76796 17.3481 6.76796 17.105C6.76796 16.8895 6.76243 16.326 6.75691 15.5746C4.25414 16.1161 3.72376 14.3702 3.72376 14.3702C3.31491 13.3315 2.72376 13.0498 2.72376 13.0498C1.90608 12.4917 2.78453 12.5028 2.78453 12.5028C3.68508 12.5691 4.16574 13.4309 4.16574 13.4309C4.96685 14.8066 6.27072 14.4089 6.78453 14.1768C6.86741 13.5966 7.09945 13.199 7.3536 12.9724C5.35912 12.7514 3.25967 11.9779 3.25967 8.53039C3.25967 7.54696 3.60774 6.74586 4.18785 6.11602C4.09392 5.88398 3.78453 4.97238 4.27071 3.73481C4.27071 3.73481 5.02762 3.49171 6.74586 4.65745C7.46408 4.45857 8.23204 4.35912 9 4.35359C9.76244 4.35912 10.5359 4.45857 11.2542 4.65745C12.9724 3.49171 13.7293 3.73481 13.7293 3.73481C14.221 4.97238 13.9116 5.8895 13.8177 6.11602C14.3922 6.74586 14.7403 7.54696 14.7403 8.53039C14.7403 11.9889 12.6353 12.7458 10.6298 12.9724C10.9503 13.2486 11.2431 13.8011 11.2431 14.6409C11.2431 15.8453 11.232 16.8121 11.232 17.1105C11.232 17.3536 11.3923 17.6299 11.8509 17.5414C15.4254 16.348 18 12.9779 18 9.00552C18 4.02762 13.9724 0 9 0Z" fill="#0A1D3C"/>
</svg>
