<svg width="74" height="25" viewBox="0 0 74 25" fill="none" xmlns="http://www.w3.org/2000/svg">
<path d="M0.25 0.786865C0.111929 0.786865 0 0.898794 0 1.03687V14.9412C0 18.0297 2.59223 20.5391 5.75234 20.5391H17.8575C17.9955 20.5391 18.1075 20.4271 18.1075 20.2891V18.1499C18.1075 18.0119 17.9955 17.8999 17.8575 17.8999H5.75234C4.07039 17.8999 2.70093 16.5588 2.70093 14.9412V1.03687C2.70093 0.898794 2.58901 0.786865 2.45093 0.786865H0.25Z" fill="#0A1D3C"/>
<path d="M45.3686 5.06567C42.2084 5.06567 39.6162 7.57502 39.6162 10.6635V20.2896C39.6162 20.4277 39.7281 20.5396 39.8662 20.5396H42.0672C42.2052 20.5396 42.3172 20.4277 42.3172 20.2896V10.6635C42.3172 9.0459 43.6866 7.70481 45.3686 7.70481H50.8709C51.009 7.70481 51.1209 7.59288 51.1209 7.45481V5.31567C51.1209 5.1776 51.009 5.06567 50.8709 5.06567H45.3686Z" fill="#0A1D3C"/>
<path fill-rule="evenodd" clip-rule="evenodd" d="M21.16 11.4829C20.421 11.4829 19.8096 12.067 19.8096 12.8025V14.9416C19.8096 18.0301 22.4018 20.5394 25.5619 20.5394H34.3657C35.1048 20.5394 35.7161 19.9553 35.7161 19.2199V12.8025C35.7161 12.7693 35.7149 12.7365 35.7125 12.704V10.6635C35.7125 7.57502 33.1202 5.06567 29.9601 5.06567H22.2568C22.1188 5.06567 22.0068 5.1776 22.0068 5.31567V7.45481C22.0068 7.59288 22.1188 7.70481 22.2568 7.70481H29.9601C31.6421 7.70481 33.0115 9.0459 33.0115 10.6635V11.4829H21.16ZM22.5105 14.9416V14.122H33.0152V17.9003H25.5619C23.88 17.9003 22.5105 16.5592 22.5105 14.9416Z" fill="#0A1D3C"/>
<path fill-rule="evenodd" clip-rule="evenodd" d="M55.1688 5.06567C54.4297 5.06567 53.8184 5.6498 53.8184 6.38524V14.9418C53.8184 18.0303 56.4106 20.5396 59.5707 20.5396H67.821L71.5195 24.1342C71.6165 24.2285 71.771 24.2285 71.868 24.1342L73.4243 22.6216C73.4727 22.5745 73.5 22.5099 73.5 22.4423C73.5 22.3748 73.4727 22.3101 73.4243 22.2631L69.7249 18.6676V10.6635C69.7249 7.57502 67.1327 5.06567 63.9726 5.06567H55.1688ZM67.024 16.0425V10.6635C67.024 9.0459 65.6545 7.70481 63.9726 7.70481H56.5193V14.9418C56.5193 16.5594 57.8887 17.9005 59.5707 17.9005H65.1057L61.9234 14.8076C61.875 14.7605 61.8477 14.6959 61.8477 14.6283C61.8477 14.5608 61.875 14.4961 61.9234 14.449L63.4797 12.9364C63.5767 12.8421 63.7312 12.8421 63.8282 12.9364L67.024 16.0425Z" fill="#0A1D3C"/>
</svg>
