<svg width="18" height="18" viewBox="0 0 18 18" fill="none" xmlns="http://www.w3.org/2000/svg">
<path d="M15.3 15.3H12.6V10.53C12.6 9.783 11.997 9.18 11.25 9.18C10.503 9.18 9.9 9.783 9.9 10.53V15.3H7.2V7.2H9.9V8.28C10.35 7.524 11.331 7.02 12.15 7.02C13.887 7.02 15.3 8.433 15.3 10.17V15.3ZM4.05 5.679C3.15 5.679 2.421 4.95 2.421 4.05C2.421 3.15 3.15 2.421 4.05 2.421C4.95 2.421 5.679 3.15 5.679 4.05C5.679 4.95 4.95 5.679 4.05 5.679ZM5.4 15.3H2.7V7.2H5.4V15.3ZM16.2 0H1.8C0.801 0 0 0.801 0 1.8V16.2C0 17.19 0.81 18 1.8 18H16.2C17.19 18 18 17.19 18 16.2V1.8C18 0.801 17.19 0 16.2 0Z" fill="#0A1D3C"/>
</svg>
