<svg xmlns="http://www.w3.org/2000/svg" width="147" height="54" fill="none" viewBox="0 0 147 54"><path fill="#0A1D3C" d="M23.1721 46.2857V36H5.14941V38.5714V43.7143C5.14941 46.5429 7.46662 48.8571 10.2988 48.8571H18.0228C18.0228 47.4429 19.1814 46.2857 20.5975 46.2857H23.1721Z"/><path fill="#0A1D3C" d="M43.7695 20.5715V19.2857C43.7695 18.8486 43.7438 18.4115 43.6665 18H48.9189V10.2857C48.9189 7.45717 46.6017 5.14288 43.7695 5.14288H36.0455V10.3886C35.6335 10.3372 35.1959 10.2857 34.7582 10.2857C34.3205 10.2857 33.8828 10.3115 33.4708 10.3886V5.14288H30.8962V11.16C29.9435 11.6229 29.0681 12.24 28.3215 13.0115V5.14288H25.7468V15.4286H23.1721V5.14288H20.5975V15.4286H18.0228V5.14288H10.2988C7.46662 5.14288 5.14941 7.45717 5.14941 10.2857V18H28.4502C29.0424 15.0686 31.6428 12.8572 34.7582 12.8572C35.4276 12.8572 36.0712 12.96 36.6634 13.14C36.6892 13.14 36.6892 13.1143 36.7149 13.1143L41.89 10.44C42.4564 10.1315 43.1773 10.3115 43.5635 10.8772C43.821 11.2629 43.821 11.7772 43.615 12.1886L41.0919 17.4343C41.0661 17.5115 41.0146 17.5629 40.9889 17.6143C41.1433 18.1543 41.2206 18.72 41.2206 19.2857V29.5715C41.2206 33.12 38.337 36 34.7839 36H32.2092H30.9219V46.2857H33.4966C34.9126 46.2857 36.0712 47.4429 36.0712 48.8572H43.7953C46.6274 48.8572 48.9446 46.5429 48.9446 43.7143V36H41.0919C41.8385 35.2543 42.4822 34.38 42.9456 33.4286H48.9189V30.8572H43.6665C43.718 30.4457 43.7695 30.0086 43.7695 29.5715V28.2857H48.9189V25.7143H43.7695V23.1429H48.9189V20.5715H43.7695Z"/><path fill="#7DFB9A" d="M43.7695 19.2857V20.5714H48.9188V18H43.6665C43.7437 18.4114 43.7695 18.8486 43.7695 19.2857Z"/><path fill="#7DFB9A" d="M41.0659 36H48.9187V33.4286H42.8939C42.4305 34.38 41.8126 35.2543 41.0659 36Z"/><path fill="#7DFB9A" d="M43.7695 29.5714C43.7695 30.0085 43.7437 30.4456 43.6665 30.8571H48.9188V28.2856H43.7695V29.5714Z"/><path fill="#7DFB9A" d="M48.9189 23.1428H43.7695V25.7143H48.9189V23.1428Z"/><path fill="#7DFB9A" d="M20.5971 5.14288H18.0225V15.4286H20.5971V5.14288Z"/><path fill="#7DFB9A" d="M34.758 10.2857C35.1957 10.2857 35.6334 10.3115 36.0454 10.3886V5.14288H33.4707V10.3886C33.8827 10.3115 34.3203 10.2857 34.758 10.2857Z"/><path fill="#7DFB9A" d="M30.896 11.16V5.14288H28.3213V12.9857C29.0679 12.24 29.9433 11.6229 30.896 11.16Z"/><path fill="#7DFB9A" d="M25.7465 5.14288H23.1719V15.4286H25.7465V5.14288Z"/><path fill="#0A1D3C" d="M34.7582 33.4286C36.8951 33.4286 38.6202 31.7057 38.6202 29.5714V28.2857V19.2857C38.6202 17.1514 36.8951 15.4286 34.7582 15.4286C32.6212 15.4286 30.8962 17.1514 30.8962 19.2857V20.5714H5.14941V23.1429H6.43675H30.8962V25.7143H5.14941V28.2857H32.8272C33.1876 28.2857 33.4708 28.0029 33.4708 27.6429V23.1429V19.5429C33.4708 18.8229 34.0373 18.2572 34.7582 18.2572C35.4791 18.2572 36.0455 18.8229 36.0455 19.5429V27.6429C36.0455 29.4172 34.6037 30.8572 32.8272 30.8572H5.14941V33.4286H32.1835H34.7582Z"/><path fill="#0A1D3C" d="M28.3213 36H25.7466V48.8571H28.3213V36Z"/><path fill="#7DFB9A" d="M30.8961 23.1428H6.43675H5.14941V25.7143H30.8961V23.1428Z"/><path fill="#7DFB9A" d="M36.0455 27.6429V19.5429C36.0455 18.8229 35.4791 18.2571 34.7582 18.2571C34.0372 18.2571 33.4708 18.8229 33.4708 19.5429V23.1429V27.6429C33.4708 28.0029 33.1876 28.2857 32.8272 28.2857H5.14941V30.8571H32.8272C34.6037 30.8571 36.0455 29.4171 36.0455 27.6429Z"/><path fill="#7DFB9A" d="M30.8961 46.2857V36H32.1835H34.7582C38.3112 36 41.1948 33.12 41.1948 29.5714V19.2857V19.26C41.1948 17.8714 41.5038 16.5086 42.096 15.2743L43.615 12.1628C43.821 11.7514 43.821 11.2371 43.5635 10.8514C43.1773 10.2857 42.4564 10.1314 41.89 10.4143L39.3668 11.7257C37.9507 12.4714 36.3544 12.8571 34.7582 12.8314C31.6428 12.8314 29.0424 15.0428 28.4502 17.9743H5.14941V20.5457H30.8961V19.3628C30.8961 17.28 32.4924 15.5057 34.5522 15.4028C36.7664 15.3 38.6202 17.0743 38.6202 19.26V28.26V29.5457C38.6202 31.68 36.8951 33.4028 34.7582 33.4028H32.1835H5.14941V35.9743H23.1721V46.26H20.5975C19.1814 46.26 18.0228 47.4171 18.0228 48.8314H20.5975H23.1721H25.7468V35.9743H28.3215V48.8314H30.8961H33.4708H36.0455C36.0455 47.4171 34.8869 46.26 33.4708 46.26H30.8961V46.2857Z"/><path fill="#0A1D3C" d="M20.5971 48.8572H18.0225V54H20.5971V48.8572Z"/><path fill="#0A1D3C" d="M25.7465 48.8572H23.1719V54H25.7465V48.8572Z"/><path fill="#0A1D3C" d="M30.896 48.8572H28.3213V54H30.896V48.8572Z"/><path fill="#0A1D3C" d="M36.0454 48.8572H33.4707V54H36.0454V48.8572Z"/><path fill="#0A1D3C" d="M5.14935 33.4286H0V36H5.14935V33.4286Z"/><path fill="#0A1D3C" d="M5.14935 28.2856H0V30.8571H5.14935V28.2856Z"/><path fill="#0A1D3C" d="M5.14935 23.1428H0V25.7143H5.14935V23.1428Z"/><path fill="#0A1D3C" d="M5.14935 18H0V20.5714H5.14935V18Z"/><path fill="#0A1D3C" d="M54.0683 33.4286H48.9189V36H54.0683V33.4286Z"/><path fill="#0A1D3C" d="M54.0683 28.2856H48.9189V30.8571H54.0683V28.2856Z"/><path fill="#0A1D3C" d="M54.0683 23.1428H48.9189V25.7143H54.0683V23.1428Z"/><path fill="#0A1D3C" d="M54.0683 18H48.9189V20.5714H54.0683V18Z"/><path fill="#0A1D3C" d="M36.0454 0H33.4707V5.14286H36.0454V0Z"/><path fill="#0A1D3C" d="M30.896 0H28.3213V5.14286H30.896V0Z"/><path fill="#0A1D3C" d="M25.7465 0H23.1719V5.14286H25.7465V0Z"/><path fill="#0A1D3C" d="M20.5971 0H18.0225V5.14286H20.5971V0Z"/><path fill="#0A1D3C" fill-rule="evenodd" d="M61.792 29.5715V12.8572H64.3667V29.5715C64.3667 31.69 66.1075 33.4286 68.2287 33.4286H82.3894V36H68.2287C64.6856 36 61.792 33.1101 61.792 29.5715Z" clip-rule="evenodd"/><path fill="#0A1D3C" fill-rule="evenodd" d="M114.573 20.5714C112.452 20.5714 110.711 22.3101 110.711 24.4286V36H108.136V24.4286C108.136 20.8899 111.03 18 114.573 18H121.01V20.5714H114.573Z" clip-rule="evenodd"/><path fill="#0A1D3C" fill-rule="evenodd" d="M84.9644 26.9999C84.9644 26.2899 85.5407 25.7142 86.2517 25.7142H101.7C102.411 25.7142 102.987 26.2899 102.987 26.9999V34.7142C102.987 35.4243 102.411 36 101.7 36H91.401C87.8579 36 84.9644 33.11 84.9644 29.5714V26.9999ZM87.539 28.2857V29.5714C87.539 31.6899 89.2799 33.4285 91.401 33.4285H100.412V28.2857H87.539Z" clip-rule="evenodd"/><path fill="#0A1D3C" fill-rule="evenodd" d="M87.5386 18H96.5499C100.093 18 102.987 20.8899 102.987 24.4286V27H100.412V24.4286C100.412 22.3101 98.6711 20.5714 96.5499 20.5714H87.5386V18Z" clip-rule="evenodd"/><path fill="#0A1D3C" fill-rule="evenodd" d="M123.584 19.2857C123.584 18.5756 124.161 18 124.872 18H135.17C138.714 18 141.607 20.8899 141.607 24.4286V34.7143C141.607 35.4244 141.031 36 140.32 36H130.021C126.478 36 123.584 33.1101 123.584 29.5714V19.2857ZM126.159 20.5714V29.5714C126.159 31.6899 127.9 33.4286 130.021 33.4286H139.033V24.4286C139.033 22.3101 137.292 20.5714 135.17 20.5714H126.159Z" clip-rule="evenodd"/><path fill="#0A1D3C" fill-rule="evenodd" d="M144.198 40.4063L132.973 29.1949L134.793 27.3766L146.019 38.588L144.198 40.4063Z" clip-rule="evenodd"/></svg>